<svg xmlns="http://www.w3.org/2000/svg" width="232" height="232" viewBox="0 0 232 232">
  <g id="Group_10" data-name="Group 10" transform="translate(-87 -313)">
    <rect id="Rectangle_34" data-name="Rectangle 34" width="232" height="232" transform="translate(87 313)" fill="#ff584f"/>
    <text id="ANGULAR_MATERIAL_DESIGN_SYSTEM_KITCHEN_SINK" data-name="ANGULAR
MATERIAL
DESIGN
SYSTEM
KITCHEN
SINK" transform="translate(303 357)" fill="#fff" font-size="26" font-family="Helvetica-Bold, Helvetica" font-weight="700"><tspan x="-129.987" y="0">ANGULAR</tspan><tspan x="-132.399" y="25">MATERIAL</tspan><tspan x="-99.684" y="50">DESIGN</tspan><tspan x="-106.907" y="75">SYSTEM</tspan><tspan x="-115.553" y="100">KITCHEN</tspan><tspan x="-62.118" y="125">SINK</tspan></text>
    <g id="angular_whiteTransparent" transform="translate(121.006 463.112)">
      <g id="Group_8" data-name="Group 8" transform="translate(31.9 30)">
        <path id="Path_14" data-name="Path 14" d="M46.691,49.605H42.767l-1.859,4.639H37.445l9.247-20.733v.016h0V30h0L31.9,35.275l2.256,19.558,12.535,6.943h0Z" transform="translate(-31.9 -30)" fill="#fff"/>
        <path id="Path_15" data-name="Path 15" d="M108,101h2.7V94.5Z" transform="translate(-95.909 -84.252)" fill="#fff"/>
      </g>
      <g id="Group_9" data-name="Group 9" transform="translate(46.691 30)" opacity="0.9">
        <path id="Path_16" data-name="Path 16" d="M125,49.605h3.924l1.859,4.639h3.464L125,33.511v.016h0V30h0l14.791,5.275-2.256,19.558L125,61.775h0Z" transform="translate(-125 -30)" fill="#fff"/>
        <path id="Path_17" data-name="Path 17" d="M127.7,101H125V94.5Z" transform="translate(-125 -84.252)" fill="#fff"/>
      </g>
    </g>
    <path id="Sass_Logo_Color" d="M41.669,20.849a10.025,10.025,0,0,0-4.387,1.017,9.244,9.244,0,0,1-.982-2.273,6.1,6.1,0,0,1-.088-1.91,16.968,16.968,0,0,1,.575-2.061c-.009-.088-.106-.5-1.079-.513s-1.813.186-1.91.442a10.672,10.672,0,0,0-.407,1.442,34.044,34.044,0,0,1-2.963,5.7,6.144,6.144,0,0,1-.672-1.663,6.1,6.1,0,0,1-.088-1.91,16.968,16.968,0,0,1,.575-2.061c-.009-.088-.106-.5-1.079-.513s-1.813.186-1.91.442-.2.858-.407,1.442-2.565,5.855-3.184,7.217c-.318.7-.593,1.256-.787,1.636h0a.4.4,0,0,1-.035.071c-.168.327-.265.5-.265.5v.009c-.133.239-.274.46-.345.46a2.959,2.959,0,0,1,.018-1.5c.354-1.831,1.194-4.679,1.185-4.776,0-.053.159-.548-.548-.8a.878.878,0,0,0-1,.168c-.062,0-.106.15-.106.15s.769-3.2-1.468-3.2c-1.4,0-3.325,1.53-4.281,2.91-.6.327-1.884,1.026-3.255,1.778-.522.292-1.061.584-1.565.858-.035-.035-.071-.08-.106-.115C8.4,20.893,3.39,18.85,3.6,14.967c.08-1.415.566-5.13,9.614-9.64,7.447-3.67,13.373-2.653,14.4-.4,1.468,3.219-3.175,9.2-10.87,10.065-2.936.327-4.475-.8-4.864-1.229-.407-.442-.469-.469-.619-.38-.248.133-.088.531,0,.761a4.542,4.542,0,0,0,2.777,2.185c1.415.46,4.856.716,9.021-.893,4.661-1.8,8.3-6.819,7.235-11.02-1.07-4.263-8.146-5.669-14.841-3.29a33.724,33.724,0,0,0-11.4,6.545C.365,11.12-.218,14.118.02,15.374c.858,4.458,7,7.359,9.464,9.508-.124.071-.239.133-.336.186-1.229.61-5.917,3.06-7.084,5.652-1.327,2.936.212,5.041,1.229,5.324a7.564,7.564,0,0,0,8.146-3.3,8.171,8.171,0,0,0,.725-7.527.185.185,0,0,0-.035-.053c.318-.186.646-.38.964-.566.628-.371,1.247-.716,1.778-1a11.657,11.657,0,0,0-.628,3.219,6.721,6.721,0,0,0,1.442,4.67,1.593,1.593,0,0,0,1.167.38c1.044,0,1.512-.867,2.034-1.893.637-1.256,1.212-2.715,1.212-2.715s-.716,3.945,1.229,3.945c.708,0,1.424-.92,1.742-1.389v.009s.018-.027.053-.088l.115-.186v-.018c.283-.5.92-1.619,1.866-3.485,1.221-2.406,2.4-5.413,2.4-5.413a15.371,15.371,0,0,0,.469,1.955,18.4,18.4,0,0,0,1.008,2.264c-.283.4-.46.619-.46.619l.009.009c-.23.3-.478.628-.752.946A28.193,28.193,0,0,0,25.5,29.277a.773.773,0,0,0,.212,1.044,1.93,1.93,0,0,0,1.185.195,5.442,5.442,0,0,0,1.778-.407,5.966,5.966,0,0,0,1.53-.8,3.424,3.424,0,0,0,1.468-3.016,6.089,6.089,0,0,0-.557-2.132c.088-.124.168-.248.256-.371A40.515,40.515,0,0,0,34.027,19.2a15.371,15.371,0,0,0,.469,1.955,13.092,13.092,0,0,0,.858,1.946,8.407,8.407,0,0,0-2.583,3.334c-.557,1.61-.124,2.335.7,2.5a2.465,2.465,0,0,0,1.291-.265,5.882,5.882,0,0,0,1.636-.84,3.677,3.677,0,0,0,1.8-2.989,5.651,5.651,0,0,0-.407-1.769,9.263,9.263,0,0,1,4.7-.54c4.21.5,5.041,3.122,4.882,4.228a2.8,2.8,0,0,1-1.336,1.893c-.292.186-.389.248-.363.38.035.195.177.186.425.15a3.288,3.288,0,0,0,2.291-2.927C48.523,23.661,46.047,20.822,41.669,20.849ZM9.192,31.8c-1.4,1.521-3.343,2.1-4.183,1.61-.9-.522-.548-2.768,1.167-4.378a22.281,22.281,0,0,1,3.281-2.45c.2-.124.5-.3.867-.522.062-.035.1-.053.1-.053h0l.212-.133A6.041,6.041,0,0,1,9.192,31.8Zm10.171-6.916c-.486,1.185-1.5,4.219-2.123,4.051-.531-.142-.858-2.441-.106-4.714a10.709,10.709,0,0,1,1.654-3.034c.761-.849,1.6-1.132,1.8-.787C20.849,20.849,19.664,24.139,19.363,24.882ZM27.756,28.9c-.2.106-.4.177-.486.124-.062-.035.088-.177.088-.177s1.052-1.132,1.468-1.645c.239-.3.522-.654.823-1.052v.115C29.649,27.615,28.34,28.526,27.756,28.9ZM34.23,27.42c-.15-.106-.124-.46.38-1.565A5.893,5.893,0,0,1,36.052,24a2.5,2.5,0,0,1,.142.814A2.676,2.676,0,0,1,34.23,27.42Z" transform="translate(193.815 490.87)" fill="#fff"/>
    <g id="Layer_2" data-name="Layer 2" transform="translate(-57.347 464.865)">
      <g id="Layer_1" data-name="Layer 1" transform="translate(167.253 28.247)">
        <path id="Path_18" data-name="Path 18" d="M15.48,0h0L0,5.579,2.345,26.152,15.48,33.507h0L28.7,26.152l2.4-20.573Z" fill="#fff"/>
        <path id="Path_19" data-name="Path 19" d="M92.4,0V3.719h0V20.64h0V33.507h0l13.218-7.355,2.4-20.573Z" transform="translate(-76.92)" fill="#ffeeed"/>
        <rect id="Rectangle_35" data-name="Rectangle 35" width="5.026" height="5.026" rx="1" transform="translate(19.735 7.539)" fill="#ff584f"/>
        <rect id="Rectangle_36" data-name="Rectangle 36" width="5.026" height="5.026" rx="1" transform="translate(19.735 14.24)" fill="#ff584f"/>
        <rect id="Rectangle_37" data-name="Rectangle 37" width="5.026" height="5.026" rx="1" transform="translate(19.735 20.942)" fill="#ff584f"/>
        <rect id="Rectangle_38" data-name="Rectangle 38" width="5.026" height="5.026" rx="1" transform="translate(13.034 20.942)" fill="#ff584f"/>
        <rect id="Rectangle_39" data-name="Rectangle 39" width="5.026" height="5.026" rx="1" transform="translate(6.333 20.942)" fill="#ff584f"/>
        <rect id="Rectangle_40" data-name="Rectangle 40" width="5.026" height="5.026" rx="1" transform="translate(6.333 14.24)" fill="#ff584f"/>
        <rect id="Rectangle_41" data-name="Rectangle 41" width="5.026" height="5.026" rx="1" transform="translate(13.034 14.24)" fill="#ff584f"/>
      </g>
    </g>
  </g>
</svg>
